<svg xmlns="http://www.w3.org/2000/svg" viewBox="0 0 600 600" width="512" height="512" xmlns:c2pa="http://c2pa.org/manifest"><metadata><c2pa:manifest>AAAWgmp1bWIAAAAeanVtZGMycGEAEQAQgAAAqgA4m3EDYzJwYQAAABZcanVtYgAAAEdqdW1kYzJtYQARABCAAACqADibcQN1cm46YzJwYTo4YmMwNDM3Ni1mZjhkLTQxNmMtOTIzYi1mZTdmMTMyYWQ0NTgAAAADl2p1bWIAAAApanVtZGMyYXMAEQAQgAAAqgA4m3EDYzJwYS5hc3NlcnRpb25zAAAAALxqdW1iAAAARGp1bWRjYm9yABEAEIAAAKoAOJtxE2MycGEuaW5ncmVkaWVudC52MwAAAAAYYzJzaA78FFkcWO4E6teiVyi8IWIAAABwY2JvcqNpZGM6Zm9ybWF0bWltYWdlL3N2Zyt4bWxqaW5zdGFuY2VJRHgseG1wOmlpZDpiNzZhYTFmYy1kYzFiLTRjYzEtOWQ0YS0wNjIxOTU5MTdiZTdscmVsYXRpb25zaGlwaHBhcmVudE9mAAAB4mp1bWIAAABBanVtZGNib3IAEQAQgAAAqgA4m3ETYzJwYS5hY3Rpb25zLnYyAAAAABhjMnNoZ52z/DuNXz+oiQDIX8i2xwAAAZljYm9yomdhY3Rpb25zgqJmYWN0aW9ua2MycGEub3BlbmVkanBhcmFtZXRlcnOha2luZ3JlZGllbnRzgaJjdXJseC1zZWxmI2p1bWJmPWMycGEuYXNzZXJ0aW9ucy9jMnBhLmluZ3JlZGllbnQudjNkaGFzaFggUAMYOTJbyQPcfAzPcfRgK9r6EDtRQyoTw8c4PKb8VyKkZmFjdGlvbngdY29tLmFudGhyb3BpYy5jbGF1ZGUucHJvdmlkZWRqcGFyYW1ldGVyc6F4H2NvbS5hbnRocm9waWMub3JpZ2luLWNvbmZpZGVuY2VndW5rbm93bmtkZXNjcmlwdGlvbnhmQ2xhdWRlIHByb3ZpZGVkIHRoaXMgZmlsZSBhdCB0aGUgcmVxdWVzdCBvZiBhIHVzZXIgYW5kIG1heSBoYXZlIGNyZWF0ZWQgb3IgbW9kaWZpZWQgdGhlIGZpbGUgY29udGVudHMubXNvZnR3YXJlQWdlbnShZG5hbWVmQ2xhdWRlcmFsbEFjdGlvbnNJbmNsdWRlZPUAAADIanVtYgAAAEBqdW1kY2JvcgARABCAAACqADibcRNjMnBhLmhhc2guZGF0YQAAAAAYYzJzaPnl9xvYUuZnHnfzQMb1QYMAAACAY2JvcqVjYWxnZnNoYTI1NmNwYWRNAAAAAAAAAAAAAAAAAGRoYXNoWCCYQqF0yX9GrXfmlbEr1e1HjO0MS9V20NXxT9AdGP3SQWRuYW1lbmp1bWJmIG1hbmlmZXN0amV4Y2x1c2lvbnOBomVzdGFydBiWZmxlbmd0aBkeBAAAAj5qdW1iAAAAJ2p1bWRjMmNsABEAEIAAAKoAOJtxA2MycGEuY2xhaW0udjIAAAACD2Nib3KlY2FsZ2ZzaGEyNTZpc2lnbmF0dXJleE1zZWxmI2p1bWJmPS9jMnBhL3VybjpjMnBhOjhiYzA0Mzc2LWZmOGQtNDE2Yy05MjNiLWZlN2YxMzJhZDQ1OC9jMnBhLnNpZ25hdHVyZWppbnN0YW5jZUlEeCx4bXA6aWlkOjM0MjY5NmFiLWMwZDAtNDRlMy05MjI5LWNjMDNlN2MyOWUyYXJjcmVhdGVkX2Fzc2VydGlvbnODomN1cmx4LXNlbGYjanVtYmY9YzJwYS5hc3NlcnRpb25zL2MycGEuaW5ncmVkaWVudC52M2RoYXNoWCBQAxg5MlvJA9x8DM9x9GAr2voQO1FDKhPDxzg8pvxXIqJjdXJseCpzZWxmI2p1bWJmPWMycGEuYXNzZXJ0aW9ucy9jMnBhLmFjdGlvbnMudjJkaGFzaFggBbGxJSmKgCuofTIRgbHwhlWw7LW4KampTZTVJMi2HjmiY3VybHgpc2VsZiNqdW1iZj1jMnBhLmFzc2VydGlvbnMvYzJwYS5oYXNoLmRhdGFkaGFzaFggnfr6dIL5RF1ZvOHYw5qR5YAB/TqYAcqtUbbKbydQxWF0Y2xhaW1fZ2VuZXJhdG9yX2luZm+jZG5hbWVvQW50aHJvcGljIEZpbGVzZ3ZlcnNpb25lMS4wLjBrc3BlY1ZlcnNpb25lMi40LjAAABA4anVtYgAAAChqdW1kYzJjcwARABCAAACqADibcQNjMnBhLnNpZ25hdHVyZQAAABAIY2JvctKEWQISogEmGCFZAgowggIGMIIBjaADAgECAhRA5aAK7sI50L64g/oGQgU9Z1UTADAKBggqhkjOPQQDAzBJMRcwFQYDVQQKEw5BbnRocm9waWMsIFBCQzEuMCwGA1UEAxMlQW50aHJvcGljIENvbnRlbnQgQ3JlZGVudGlhbHMgUm9vdCBDQTAeFw0yNjA4MDcxODQzNTZaFw0yODA4MDYxOTQzNTZaMEQxFzAVBgNVBAoTDkFudGhyb3BpYywgUEJDMSkwJwYDVQQDEyBBbnRocm9waWMgQ2xhdWRlIENvbnRlbnQgU2lnbmluZzBZMBMGByqGSM49AgEGCCqGSM49AwEHA0IABJh6CmvLUBgFFNU0vUKlOVtE6djd17L5SuwX0LemFisBM3dkd/3cyjxFA3Qo5S46fX0/ihY0VZ7mfb9KF703t5OjWDBWMA4GA1UdDwEB/wQEAwIHgDAVBgNVHSUEDjAMBgorBgEEAYPoXgIBMAwGA1UdEwEB/wQCMAAwHwYDVR0jBBgwFoAUzlHiBIFOZFsj+OPEz5o+nMHXXMIwCgYIKoZIzj0EAwMDZwAwZAIwMXMdFJ4BetLLVY7ORuE9noqbbAZOZn/aArXyTwFAZfKrPzxF2vPoJNf1+UCdg1XGAjBwX1zd9WGqYkqmL5SFqw1QySjr1zJfpJM9+1rdDwSPLMOPOjKuiXjoU/pUUeG9RwmhY3BhZFkNngAAAAAAAAAAAAAAAAAAAAAAAAAAAAAAAAAAAAAAAAAAAAAAAAAAAAAAAAAAAAAAAAAAAAAAAAAAAAAAAAAAAAAAAAAAAAAAAAAAAAAAAAAAAAAAAAAAAAAAAAAAAAAAAAAAAAAAAAAAAAAAAAAAAAAAAAAAAAAAAAAAAAAAAAAAAAAAAAAAAAAAAAAAAAAAAAAAAAAAAAAAAAAAAAAAAAAAAAAAAAAAAAAAAAAAAAAAAAAAAAAAAAAAAAAAAAAAAAAAAAAAAAAAAAAAAAAAAAAAAAAAAAAAAAAAAAAAAAAAAAAAAAAAAAAAAAAAAAAAAAAAAAAAAAAAAAAAAAAAAAAAAAAAAAAAAAAAAAAAAAAAAAAAAAAAAAAAAAAAAAAAAAAAAAAAAAAAAAAAAAAAAAAAAAAAAAAAAAAAAAAAAAAAAAAAAAAAAAAAAAAAAAAAAAAAAAAAAAAAAAAAAAAAAAAAAAAAAAAAAAAAAAAAAAAAAAAAAAAAAAAAAAAAAAAAAAAAAAAAAAAAAAAAAAAAAAAAAAAAAAAAAAAAAAAAAAAAAAAAAAAAAAAAAAAAAAAAAAAAAAAAAAAAAAAAAAAAAAAAAAAAAAAAAAAAAAAAAAAAAAAAAAAAAAAAAAAAAAAAAAAAAAAAAAAAAAAAAAAAAAAAAAAAAAAAAAAAAAAAAAAAAAAAAAAAAAAAAAAAAAAAAAAAAAAAAAAAAAAAAAAAAAAAAAAAAAAAAAAAAAAAAAAAAAAAAAAAAAAAAAAAAAAAAAAAAAAAAAAAAAAAAAAAAAAAAAAAAAAAAAAAAAAAAAAAAAAAAAAAAAAAAAAAAAAAAAAAAAAAAAAAAAAAAAAAAAAAAAAAAAAAAAAAAAAAAAAAAAAAAAAAAAAAAAAAAAAAAAAAAAAAAAAAAAAAAAAAAAAAAAAAAAAAAAAAAAAAAAAAAAAAAAAAAAAAAAAAAAAAAAAAAAAAAAAAAAAAAAAAAAAAAAAAAAAAAAAAAAAAAAAAAAAAAAAAAAAAAAAAAAAAAAAAAAAAAAAAAAAAAAAAAAAAAAAAAAAAAAAAAAAAAAAAAAAAAAAAAAAAAAAAAAAAAAAAAAAAAAAAAAAAAAAAAAAAAAAAAAAAAAAAAAAAAAAAAAAAAAAAAAAAAAAAAAAAAAAAAAAAAAAAAAAAAAAAAAAAAAAAAAAAAAAAAAAAAAAAAAAAAAAAAAAAAAAAAAAAAAAAAAAAAAAAAAAAAAAAAAAAAAAAAAAAAAAAAAAAAAAAAAAAAAAAAAAAAAAAAAAAAAAAAAAAAAAAAAAAAAAAAAAAAAAAAAAAAAAAAAAAAAAAAAAAAAAAAAAAAAAAAAAAAAAAAAAAAAAAAAAAAAAAAAAAAAAAAAAAAAAAAAAAAAAAAAAAAAAAAAAAAAAAAAAAAAAAAAAAAAAAAAAAAAAAAAAAAAAAAAAAAAAAAAAAAAAAAAAAAAAAAAAAAAAAAAAAAAAAAAAAAAAAAAAAAAAAAAAAAAAAAAAAAAAAAAAAAAAAAAAAAAAAAAAAAAAAAAAAAAAAAAAAAAAAAAAAAAAAAAAAAAAAAAAAAAAAAAAAAAAAAAAAAAAAAAAAAAAAAAAAAAAAAAAAAAAAAAAAAAAAAAAAAAAAAAAAAAAAAAAAAAAAAAAAAAAAAAAAAAAAAAAAAAAAAAAAAAAAAAAAAAAAAAAAAAAAAAAAAAAAAAAAAAAAAAAAAAAAAAAAAAAAAAAAAAAAAAAAAAAAAAAAAAAAAAAAAAAAAAAAAAAAAAAAAAAAAAAAAAAAAAAAAAAAAAAAAAAAAAAAAAAAAAAAAAAAAAAAAAAAAAAAAAAAAAAAAAAAAAAAAAAAAAAAAAAAAAAAAAAAAAAAAAAAAAAAAAAAAAAAAAAAAAAAAAAAAAAAAAAAAAAAAAAAAAAAAAAAAAAAAAAAAAAAAAAAAAAAAAAAAAAAAAAAAAAAAAAAAAAAAAAAAAAAAAAAAAAAAAAAAAAAAAAAAAAAAAAAAAAAAAAAAAAAAAAAAAAAAAAAAAAAAAAAAAAAAAAAAAAAAAAAAAAAAAAAAAAAAAAAAAAAAAAAAAAAAAAAAAAAAAAAAAAAAAAAAAAAAAAAAAAAAAAAAAAAAAAAAAAAAAAAAAAAAAAAAAAAAAAAAAAAAAAAAAAAAAAAAAAAAAAAAAAAAAAAAAAAAAAAAAAAAAAAAAAAAAAAAAAAAAAAAAAAAAAAAAAAAAAAAAAAAAAAAAAAAAAAAAAAAAAAAAAAAAAAAAAAAAAAAAAAAAAAAAAAAAAAAAAAAAAAAAAAAAAAAAAAAAAAAAAAAAAAAAAAAAAAAAAAAAAAAAAAAAAAAAAAAAAAAAAAAAAAAAAAAAAAAAAAAAAAAAAAAAAAAAAAAAAAAAAAAAAAAAAAAAAAAAAAAAAAAAAAAAAAAAAAAAAAAAAAAAAAAAAAAAAAAAAAAAAAAAAAAAAAAAAAAAAAAAAAAAAAAAAAAAAAAAAAAAAAAAAAAAAAAAAAAAAAAAAAAAAAAAAAAAAAAAAAAAAAAAAAAAAAAAAAAAAAAAAAAAAAAAAAAAAAAAAAAAAAAAAAAAAAAAAAAAAAAAAAAAAAAAAAAAAAAAAAAAAAAAAAAAAAAAAAAAAAAAAAAAAAAAAAAAAAAAAAAAAAAAAAAAAAAAAAAAAAAAAAAAAAAAAAAAAAAAAAAAAAAAAAAAAAAAAAAAAAAAAAAAAAAAAAAAAAAAAAAAAAAAAAAAAAAAAAAAAAAAAAAAAAAAAAAAAAAAAAAAAAAAAAAAAAAAAAAAAAAAAAAAAAAAAAAAAAAAAAAAAAAAAAAAAAAAAAAAAAAAAAAAAAAAAAAAAAAAAAAAAAAAAAAAAAAAAAAAAAAAAAAAAAAAAAAAAAAAAAAAAAAAAAAAAAAAAAAAAAAAAAAAAAAAAAAAAAAAAAAAAAAAAAAAAAAAAAAAAAAAAAAAAAAAAAAAAAAAAAAAAAAAAAAAAAAAAAAAAAAAAAAAAAAAAAAAAAAAAAAAAAAAAAAAAAAAAAAAAAAAAAAAAAAAAAAAAAAAAAAAAAAAAAAAAAAAAAAAAAAAAAAAAAAAAAAAAAAAAAAAAAAAAAAAAAAAAAAAAAAAAAAAAAAAAAAAAAAAAAAAAAAAAAAAAAAAAAAAAAAAAAAAAAAAAAAAAAAAAAAAAAAAAAAAAAAAAAAAAAAAAAAAAAAAAAAAAAAAAAAAAAAAAAAAAAAAAAAAAAAAAAAAAAAAAAAAAAAAAAAAAAAAAAAAAAAAAAAAAAAAAAAAAAAAAAAAAAAAAAAAAAAAAAAAAAAAAAAAAAAAAAAAAAAAAAAAAAAAAAAAAAAAAAAAAAAAAAAAAAAAAAAAAAAAAAAAAAAAAAAAAAAAAAAAAAAAAAAAAAAAAAAAAAAAAAAAAAAAAAAAAAAAAAAAAAAAAAAAAAAAAAAAAAAAAAAAAAAAAAAAAAAAAAAAAAAAAAAAAAAAAAAAAAAAAAAAAAAAAAAAAAAAAAAAAAAAAAAAAAAAAAAAAAAAAAAAAAAAAAAAAAAAAAAAAAAAAAAAAAAAAAAAAAAAAAAAAAAAAAAAAAAAAAAAAAAAAAAAAAAAAAAAAAAAAAAAAAAAAAAAAAAAAAAAAAAAAAAAAAAAAAAAAAAAAAAAAAAAAAAAAAAAAAAAAAAAAAAAAAAAAAAAAAAAAAAAAAAAAAAAAAAAAAAAAAAAAAAAAAAAAAAAAAAAAAAAAAAAAAAAAAAAAAAAAAAAAAAAAAAAAAAAAAAAAAAAAAAAAAAAAAAAAAAAAAAAAAAAAAAAAAAAAAAAAAAAAAAAAAAAAAAAAAAAAAAAAAAAAAAAAAAAAAAAAAAAAAAAAAAAAAAAAAAAAAAAAAAAAAAAAAAAAAAAAAAAAAAAAAAAAAAAAAAAAAAAAAAAAAAAAAAAAAAAAAAAAAAAAAAAAAAAAAAAAAAAAAAAAAAAAAAAAAAAAAAAAAAAAAAAAAAAAAAAAAAAAAAAAAAAAAAAAAAAAAAAAAAAAAAAAAAAAAAAAAAAAAAAAAAAAAAAAAAAAAAAAAAAAAAAAAAAAAAAAAAAAAAAAAAAAAAAAAAAAAAAAAAAAAAAAAAAAAAAAAAAAAAAAAAAAAAAAAAAAAAAAAAAAAAAAAAAAAAAAAAAAAAAAAAAAAAAAAAAAAAAAAAAAAAAAAAAAAAAAAAAAAAAAAAAAAAAAAAAAAAAAAAAAAAAAAAAAAAAAAAAAAAAAAAAAAAAAAAAAAAAAAAAAAAAAAAAAAAAAAAAAAAAAAAAAAAAAAAAAAAAAAAAAAAAAAAAAAAAAAAAAAAAAAAAAAAAAAAAAAAAAAAAAAAAAAAAAAAAAAAAAAAAAAAAAAAAAAAAAAAAAAAAAAAAAAAAAAAAAAAAAAAAAAAAAAAAAAAAAAAAAAAAAAAAAAAAAAAAAAAAAAAAAAAAAAAAAAAAAAAAAAAAAAAAAAAAAAAAAAAAAAAAAAAAAAAAAAAAAAAAAAAAAAAAAAAAAAAAAAAAAAAAAAAAAAAAAAAAAAAAAAAAAAAAAAAAAAAAAAAAAAAAAAAAAAAAAAAAAAAAAAAAAAAAAAAAAAAAAAAAAAAAAAAAAAAAAAAAAAAAAAAAAAAAAAAAAAAAAAAAAAAAAAAAAAAAAAAAAAAAAAAAAAAAAAAAAAAPZYQMuyJhW/4hT6OZcaD9HKDHHB/u6LHdNqapTFM5C4fulQhiIPI4AcJqYeP+h9vE0PP/7iLHS9KvoIETvNnqSl3Wg=</c2pa:manifest></metadata><defs><filter id="gl" x="-50%" y="-50%" width="200%" height="200%"><feGaussianBlur stdDeviation="6"></feGaussianBlur></filter><linearGradient id="sk" x1="0" y1="0" x2="0" y2="1"><stop offset="0" stop-color="#121521"></stop><stop offset=".65" stop-color="#2a2238"></stop><stop offset="1" stop-color="#6b3f45"></stop></linearGradient><radialGradient id="lg"><stop offset="0" stop-color="#ffe98a" stop-opacity=".7"></stop><stop offset="1" stop-color="#ffe98a" stop-opacity="0"></stop></radialGradient></defs><rect width="600" height="600" fill="url(#sk)"></rect><circle cx="278" cy="103" r="1.2" fill="#eeeae3" opacity="0.39"></circle><circle cx="406" cy="95" r="1.8" fill="#eeeae3" opacity="0.75"></circle><circle cx="48" cy="149" r="2.4" fill="#eeeae3" opacity="0.65"></circle><circle cx="437" cy="52" r="1.8" fill="#eeeae3" opacity="0.78"></circle><circle cx="254" cy="52" r="1.2" fill="#eeeae3" opacity="0.36"></circle><circle cx="304" cy="241" r="2.4" fill="#eeeae3" opacity="0.33"></circle><circle cx="413" cy="207" r="1.2" fill="#eeeae3" opacity="0.76"></circle><circle cx="123" cy="66" r="1.8" fill="#eeeae3" opacity="0.74"></circle><circle cx="464" cy="238" r="1.8" fill="#eeeae3" opacity="0.44"></circle><circle cx="486" cy="60" r="1.2" fill="#eeeae3" opacity="0.74"></circle><circle cx="33" cy="105" r="1.8" fill="#eeeae3" opacity="0.37"></circle><circle cx="142" cy="194" r="1.2" fill="#eeeae3" opacity="0.78"></circle><circle cx="2" cy="201" r="1.2" fill="#eeeae3" opacity="0.75"></circle><circle cx="122" cy="12" r="1.2" fill="#eeeae3" opacity="0.37"></circle><circle cx="551" cy="135" r="2.4" fill="#eeeae3" opacity="0.55"></circle><circle cx="553" cy="115" r="1.8" fill="#eeeae3" opacity="0.40"></circle><circle cx="459" cy="185" r="1.2" fill="#eeeae3" opacity="0.39"></circle><circle cx="365" cy="250" r="1.2" fill="#eeeae3" opacity="0.43"></circle><circle cx="410" cy="223" r="2.4" fill="#eeeae3" opacity="0.43"></circle><circle cx="597" cy="259" r="1.2" fill="#eeeae3" opacity="0.73"></circle><circle cx="241" cy="237" r="1.2" fill="#eeeae3" opacity="0.61"></circle><circle cx="26" cy="101" r="2.4" fill="#eeeae3" opacity="0.56"></circle><circle cx="339" cy="182" r="1.8" fill="#eeeae3" opacity="0.35"></circle><circle cx="529" cy="101" r="1.2" fill="#eeeae3" opacity="0.50"></circle><circle cx="592" cy="154" r="1.2" fill="#eeeae3" opacity="0.49"></circle><circle cx="365" cy="10" r="1.2" fill="#eeeae3" opacity="0.41"></circle><circle cx="470" cy="110" r="38" fill="#f3ead0"></circle><path d="M0 330 L110 260 L220 310 L340 220 L470 300 L600 250 L600 600 L0 600Z" fill="#262b3a"></path><path d="M0 390 L160 350 L330 380 L600 345 L600 600 L0 600Z" fill="#1c2030"></path><path d="M-20 505 Q200 470 320 485 T620 470" stroke="#8a7a60" stroke-width="5" id="trail" stroke-dasharray="14 12" fill="none"></path><g id="ghost" transform="translate(430.0 490.7) scale(0.667) translate(-430.0 -466.5)"><g filter="url(#gl)"><g opacity="0.55"><path d="M430.0 404.5 L443.9 348.7 M430.0 404.5 L456.4 423.1 L447.1 452.6 L457.9 457.2 M430.0 404.5 L419.1 435.5 L391.2 451.0 L383.5 441.7 M443.9 348.7 L462.6 370.4 L476.5 351.8 M443.9 348.7 L425.4 376.6 L411.4 361.1" stroke="#d9f1ff" stroke-width="18.6" stroke-linecap="round" stroke-linejoin="round" fill="none"></path><circle cx="453.2" cy="325.4" r="15.5" fill="#d9f1ff"></circle></g></g><g opacity="0.8"><path d="M430.0 404.5 L443.9 348.7 M430.0 404.5 L456.4 423.1 L447.1 452.6 L457.9 457.2 M430.0 404.5 L419.1 435.5 L391.2 451.0 L383.5 441.7 M443.9 348.7 L462.6 370.4 L476.5 351.8 M443.9 348.7 L425.4 376.6 L411.4 361.1" stroke="#eaf7ff" stroke-width="18.6" stroke-linecap="round" stroke-linejoin="round" fill="none"></path><circle cx="453.2" cy="325.4" r="15.5" fill="#eaf7ff"></circle></g></g><g id="chaser" transform="translate(175.0 483.5) scale(0.667) translate(-175.0 -476.5)"><g opacity="0.08"><path d="M49.0 444.3 L64.8 381.3 M49.0 444.3 L78.8 465.3 L68.2 498.5 L80.5 503.8 M49.0 444.3 L36.8 479.3 L5.2 496.8 L-3.5 486.3 M64.8 381.3 L85.8 405.8 L101.5 384.8 M64.8 381.3 L43.8 412.8 L28.0 395.3" stroke="#e8a33c" stroke-width="21.0" stroke-linecap="round" stroke-linejoin="round" fill="none"></path><circle cx="75.2" cy="355.0" r="17.5" fill="#e8a33c"></circle></g><g opacity="0.15"><path d="M94.5 430.6 L110.2 367.6 M94.5 430.6 L124.2 451.6 L113.8 484.9 L126.0 490.1 M94.5 430.6 L82.2 465.6 L50.8 483.1 L42.0 472.6 M110.2 367.6 L131.2 392.1 L147.0 371.1 M110.2 367.6 L89.2 399.1 L73.5 381.6" stroke="#e8a33c" stroke-width="21.0" stroke-linecap="round" stroke-linejoin="round" fill="none"></path><circle cx="120.8" cy="341.4" r="17.5" fill="#e8a33c"></circle></g><g opacity="0.26"><path d="M136.5 418.1 L152.2 355.1 M136.5 418.1 L166.2 439.1 L155.8 472.3 L168.0 477.6 M136.5 418.1 L124.2 453.1 L92.8 470.6 L84.0 460.1 M152.2 355.1 L173.2 379.6 L189.0 358.6 M152.2 355.1 L131.2 386.6 L115.5 369.1" stroke="#e8a33c" stroke-width="21.0" stroke-linecap="round" stroke-linejoin="round" fill="none"></path><circle cx="162.8" cy="328.8" r="17.5" fill="#e8a33c"></circle></g><g opacity="1"><path d="M175.0 406.5 L190.8 343.5 M175.0 406.5 L204.8 427.5 L194.2 460.8 L206.5 466.0 M175.0 406.5 L162.8 441.5 L131.2 459.0 L122.5 448.5 M190.8 343.5 L211.8 368.0 L227.5 347.0 M190.8 343.5 L169.8 375.0 L154.0 357.5" stroke="#e8a33c" stroke-width="21.0" stroke-linecap="round" stroke-linejoin="round" fill="none"></path><circle cx="201.2" cy="317.2" r="17.5" fill="#e8a33c"></circle></g></g></svg>